<svg width="167" height="57" viewBox="0 0 167 57" fill="none" xmlns="http://www.w3.org/2000/svg" xmlns:xlink="http://www.w3.org/1999/xlink">
<path d="M160.312 42.4107H159.09V42.1133H161.861V42.4107H160.639V45.8605H160.312V42.4107Z" fill="white"/>
<path d="M165.944 42.5609L164.574 45.8918H164.454L163.084 42.5609V45.8918H162.756V42.1445H163.233L164.514 45.2375L165.795 42.1445H166.272V45.8918H165.944V42.5609Z" fill="white"/>
<path d="M38.5586 36.8477H40.0187V44.1934C41.1212 42.6469 42.8197 41.6655 44.7267 41.6655C48.3621 41.6655 50.8055 44.4908 50.8055 48.7733C50.8055 53.1153 48.3323 55.8514 44.7267 55.8514C42.7005 55.8514 40.9722 54.751 40.0187 53.3532V55.5242H38.5586V36.8477ZM44.4884 54.5726C47.5277 54.5726 49.2262 52.0744 49.2262 48.803C49.2262 45.5317 47.4979 43.0038 44.4884 43.0038C42.6111 43.0038 40.7934 44.1934 40.0187 45.4722V52.1636C40.7934 53.4425 42.5813 54.5726 44.4884 54.5726Z" fill="white"/>
<path d="M60.2508 41.6641C64.3927 41.6641 66.6573 44.9354 66.6573 48.8313V49.218H55.3044C55.4534 52.1622 57.42 54.6009 60.5786 54.6009C62.3069 54.6009 63.8564 53.9466 65.0483 52.7273L65.7932 53.6789C64.4523 55.0767 62.724 55.8797 60.4892 55.8797C56.5261 55.8797 53.6953 52.9354 53.6953 48.7719C53.6953 44.8462 56.4963 41.6641 60.2508 41.6641ZM55.3044 48.0878H65.1675C65.1377 45.7979 63.618 42.9429 60.221 42.9429C57.0327 42.9429 55.4236 45.7384 55.3044 48.0878Z" fill="white"/>
<path d="M80.1559 53.3845C79.2024 54.7822 77.4443 55.8826 75.4479 55.8826C71.8424 55.8826 69.3691 53.1466 69.3691 48.8046C69.3691 44.522 71.8424 41.6967 75.4479 41.6967C77.3549 41.6967 79.0832 42.6782 80.1559 44.2246V36.8789H81.6458V55.5852H80.1559V53.3845ZM80.1559 45.444C79.3812 44.1354 77.5933 42.9756 75.6863 42.9756C72.6767 42.9756 70.9484 45.5034 70.9484 48.7748C70.9484 52.0462 72.6767 54.5443 75.6863 54.5443C77.5933 54.5443 79.3812 53.4142 80.1559 52.1354V45.444Z" fill="white"/>
<path d="M86.0859 41.9927H87.546V44.3124C88.7081 42.7957 90.2576 41.6953 92.1349 41.6953V43.3013C91.8965 43.2715 91.6879 43.2418 91.39 43.2418C90.0193 43.2418 88.1718 44.4611 87.546 45.6507V55.5243H86.0859V41.9927Z" fill="white"/>
<path d="M94.1016 48.7734C94.1016 44.818 96.6642 41.6953 100.627 41.6953C104.65 41.6953 107.183 44.8477 107.183 48.7734C107.183 52.7288 104.65 55.8812 100.627 55.8812C96.6642 55.8812 94.1016 52.699 94.1016 48.7734ZM105.603 48.7734C105.603 45.7697 103.845 43.0039 100.627 43.0039C97.4687 43.0039 95.6808 45.7697 95.6808 48.7734C95.6808 51.8068 97.4687 54.5726 100.627 54.5726C103.845 54.5726 105.603 51.7771 105.603 48.7734Z" fill="white"/>
<path d="M110.074 48.7734C110.074 44.818 112.637 41.6953 116.6 41.6953C120.623 41.6953 123.155 44.8477 123.155 48.7734C123.155 52.7288 120.623 55.8812 116.6 55.8812C112.607 55.8812 110.074 52.699 110.074 48.7734ZM121.546 48.7734C121.546 45.7697 119.788 43.0039 116.57 43.0039C113.412 43.0039 111.624 45.7697 111.624 48.7734C111.624 51.8068 113.412 54.5726 116.57 54.5726C119.788 54.5726 121.546 51.7771 121.546 48.7734Z" fill="white"/>
<path d="M142.97 46.0679C142.97 44.1646 142.166 42.975 140.259 42.975C138.799 42.975 137.13 44.0456 136.385 45.265V55.5252H134.895V46.0382C134.895 44.1349 134.12 42.9453 132.183 42.9453C130.753 42.9453 129.114 44.0456 128.31 45.265V55.4955H126.85V41.9639H128.31V44.0159C128.876 43.1534 130.723 41.6367 132.69 41.6367C134.806 41.6367 135.908 42.8561 136.266 44.1943C137.011 42.9453 138.858 41.6367 140.765 41.6367C143.268 41.6367 144.46 43.0345 144.46 45.7705V55.5252H143V46.0679H142.97Z" fill="white"/>
<path d="M148.393 52.6708C149.257 53.7712 150.836 54.6634 152.773 54.6634C155.038 54.6634 156.409 53.5333 156.409 51.9868C156.409 50.2619 154.561 49.7563 152.594 49.2507C150.36 48.6857 147.857 48.0909 147.857 45.4738C147.857 43.392 149.585 41.7266 152.684 41.7266C155.008 41.7266 156.558 42.6188 157.541 43.7489L156.736 44.76C155.962 43.6894 154.501 42.9756 152.684 42.9756C150.568 42.9756 149.287 44.0165 149.287 45.4143C149.287 46.9608 151.015 47.3771 152.922 47.853C155.246 48.4477 157.869 49.0723 157.869 51.9868C157.869 54.1875 156.14 55.9719 152.773 55.9719C150.568 55.9719 148.899 55.3176 147.559 53.8306L148.393 52.6708Z" fill="white"/>
<path d="M39.0355 27.956C39.8996 29.0563 41.4789 29.9485 43.4158 29.9485C45.6804 29.9485 47.0511 28.8184 47.0511 27.2719C47.0511 25.547 45.2036 25.0415 43.237 24.5359C41.0022 23.9708 38.4991 23.376 38.4991 20.7589C38.4991 18.6771 40.2274 17.0117 43.3264 17.0117C45.6506 17.0117 47.2001 17.9039 48.1834 19.034L47.3789 20.0452C46.6041 18.9745 45.144 18.2608 43.3264 18.2608C41.2107 18.2608 39.9294 19.3017 39.9294 20.6995C39.9294 22.2459 41.6577 22.6623 43.5648 23.1381C45.889 23.7329 48.5112 24.3574 48.5112 27.2719C48.5112 29.4727 46.7829 31.2571 43.4158 31.2571C41.2107 31.2571 39.5421 30.6028 38.2012 29.1158L39.0355 27.956Z" fill="white"/>
<path d="M52.2954 28.2218V18.6159H50.0605V17.3073H52.2954V13.5898H53.7853V17.2776H56.5266V18.5861H53.7853V27.9839C53.7853 29.0843 54.2322 29.8278 55.1857 29.8278C55.8413 29.8278 56.4074 29.5304 56.7054 29.1735L57.2716 30.3036C56.7352 30.8092 56.0797 31.1363 54.9772 31.1363C53.1595 31.1661 52.2954 30.0657 52.2954 28.2218Z" fill="white"/>
<path d="M58.8516 24.0585C58.8516 20.1031 61.4142 16.9805 65.3773 16.9805C69.4 16.9805 71.9328 20.1329 71.9328 24.0585C71.9328 28.0139 69.4 31.1663 65.3773 31.1663C61.3844 31.1663 58.8516 28.0139 58.8516 24.0585ZM70.3237 24.0585C70.3237 21.0548 68.5656 18.289 65.3475 18.289C62.1889 18.289 60.401 21.0548 60.401 24.0585C60.401 27.092 62.1889 29.8578 65.3475 29.8578C68.5656 29.8578 70.3237 27.092 70.3237 24.0585Z" fill="white"/>
<path d="M75.5684 35.9842V17.3076H77.0284V19.4786C77.982 18.0808 79.74 16.9805 81.7365 16.9805C85.3718 16.9805 87.8153 19.7165 87.8153 24.0585C87.8153 28.3708 85.3718 31.1663 81.7365 31.1663C79.8294 31.1663 78.1012 30.1849 77.0284 28.6385V35.9842H75.5684ZM81.4981 18.289C79.6209 18.289 77.8032 19.4191 77.0284 20.7277V27.3894C77.8032 28.6682 79.6209 29.8578 81.4981 29.8578C84.5375 29.8578 86.236 27.3299 86.236 24.0585C86.2658 20.7872 84.5375 18.289 81.4981 18.289Z" fill="white"/>
<path d="M33.5835 55.9108V0H16.6882C15.3473 8.02974 11.861 14.6914 0.03125 14.8104V25.6654C6.82514 25.6357 11.9802 25.6654 15.5559 25.7844C15.5559 32.684 15.5559 42.7361 15.5559 55.9108H33.5835Z" fill="url(#paint0_linear_26734_229977)"/>
<path d="M33.554 36.3716V55.8809H15.5859C15.5859 41.0705 15.5859 31.078 15.5859 25.8438C23.8399 25.9924 29.8293 29.5017 33.554 36.3716Z" fill="#DC5626"/>
<path d="M33.554 36.3716V55.8809H15.5859C15.5859 41.0705 15.5859 31.078 15.5859 25.8438C23.8399 25.9924 29.8293 29.5017 33.554 36.3716Z" fill="url(#paint1_linear_26734_229977)"/>
<defs>
<linearGradient id="paint0_linear_26734_229977" x1="13.7307" y1="2.56919" x2="48.0971" y2="43.8295" gradientUnits="userSpaceOnUse">
<stop stop-color="#F89A46"/>
<stop offset="1" stop-color="#F15622"/>
</linearGradient>
<linearGradient id="paint1_linear_26734_229977" x1="27.858" y1="31.3492" x2="19.5178" y2="39.9986" gradientUnits="userSpaceOnUse">
<stop stop-color="#C34327"/>
<stop offset="1" stop-color="#DC5626"/>
</linearGradient>
</defs>
</svg>
